{"title":"Myself Ghaint 2014 Punjabi DVDRIP X264  GOPI SAHI @ SilverRG","uid":10447692,"size":736154324,"categoryP":"video","categoryS":"movies","magnet":"?xt=urn:btih:6268fd169ce37b8c5a4558d0f5b26c84fd686918&amp;dn=Myself+Ghaint+2014+Punjabi+DVDRIP+X264++GOPI+SAHI+%40+SilverRG&amp;tr=udp%3A%2F%2Ftracker.openbittorrent.com%3A80&amp;tr=udp%3A%2F%2Fopen.demonii.com%3A1337&amp;tr=udp%3A%2F%2Ftracker.coppersurfer.tk%3A6969&amp;tr=udp%3A%2F%2Fexodus.desync.com%3A6969","seeders":1,"leechers":0,"uploader":"jatt13","files":2,"time":1403981859,"description":"Video\nID                             : 2\nFormat                         : AVC\nFormat/Info                    : Advanced Video Codec\nFormat profile                 : &lt;a class=&quot;__cf_email__&quot; href=&quot;/cdn-cgi/l/email-protection&quot; data-cfemail=&quot;5c113d35321c1068726c&quot;&gt;[email&amp;#160;protected]&lt;/a&gt;&lt;script cf-hash='f9e31' type=&quot;text/javascript&quot;&gt;\n/* &lt;![CDATA[ */!function(){try{var t=&quot;currentScript&quot;in document?document.currentScript:function(){for(var t=document.getElementsByTagName(&quot;script&quot;),e=t.length;e--;)if(t[e].getAttribute(&quot;cf-hash&quot;))return t[e]}();if(t&amp;&amp;t.previousSibling){var e,r,n,i,c=t.previousSibling,a=c.getAttribute(&quot;data-cfemail&quot;);if(a){for(e=&quot;&quot;,r=parseInt(a.substr(0,2),16),n=2;a.length-n;n+=2)i=parseInt(a.substr(n,2),16)^r,e+=String.fromCharCode(i);e=document.createTextNode(e),c.parentNode.replaceChild(e,c)}}}catch(u){}}();/* ]]&gt; */&lt;/script&gt;\nFormat settings, CABAC         : Yes\nFormat settings, ReFrames      : 4 frames\nCodec ID                       : V_MPEG4/ISO/AVC\nDuration                       : 1h 53mn\nBit rate                       : 700 Kbps\nWidth                          : 720 pixels\nHeight                         : 304 pixels\nDisplay aspect ratio           : 2.35:1\nFrame rate mode                : Constant\nFrame rate                     : 25.000 fps\nColor space                    : YUV\nChroma subsampling             : 4:2:0\nBit depth                      : 8 bits\nScan type                      : Progressive\nBits/(Pixel*Frame)             : 0.128\nStream size                    : 558 MiB (80%)\nTitle                          : GOPI SAHI @ SilverRG\nWriting library                : x264 core 130 r2273 b3065e6\nLanguage                       : English\nDefault                        : Yes\nForced                         : No\nColor primaries                : BT.601 PAL\nTransfer characteristics       : BT.709\nMatrix coefficients            : BT.601\n\nAudio\nID                             : 1\nFormat                         : MPEG Audio\nFormat version                 : Version 1\nFormat profile                 : Layer 3\nMode                           : Joint stereo\nMode extension                 : MS Stereo\nCodec ID                       : A_MPEG/L3\nCodec ID/Hint                  : MP3\nDuration                       : 1h 53mn\nBit rate mode                  : Constant\nBit rate                       : 160 Kbps\nChannel(s)                     : 2 channels\nSampling rate                  : 44.1 KHz\nCompression mode               : Lossy\nStream size                    : 130 MiB (18%)\nTitle                          : PUNJABI GOPI SAHI @ SilverRG\nWriting library                : LAME3.98.4\nDefault                        : Yes\nForced                         : No\n[IMG]http://i.imgur.com/BrQOjrc.jpg[/IMG]\n[IMG]http://i.imgur.com/dHjb6LF.jpg[/IMG]\n[IMG]http://i.imgur.com/X6fsNhz.jpg[/IMG]\n[IMG]http://i.imgur.com/TFNaVRg.jpg[/IMG]\n[IMG]http://i.imgur.com/xtcZoVl.jpg[/IMG]","torrent":{"xt":"urn:btih:6268fd169ce37b8c5a4558d0f5b26c84fd686918","amp;dn":"Myself+Ghaint+2014+Punjabi+DVDRIP+X264++GOPI+SAHI+%40+SilverRG","amp;tr":["udp%3A%2F%2Ftracker.openbittorrent.com%3A80","udp%3A%2F%2Fopen.demonii.com%3A1337","udp%3A%2F%2Ftracker.coppersurfer.tk%3A6969","udp%3A%2F%2Fexodus.desync.com%3A6969"],"infoHash":"6268fd169ce37b8c5a4558d0f5b26c84fd686918","infoHashBuffer":{"type":"Buffer","data":[98,104,253,22,156,227,123,140,90,69,88,208,245,178,108,132,253,104,105,24]},"announce":[],"urlList":[]}}